<svg width="11" height="11" viewBox="0 0 11 11" fill="none" xmlns="http://www.w3.org/2000/svg">
    <path d="M5.5 4.125C5.12 4.125 4.8125 4.43224 4.8125 4.8125V8.25C4.8125 8.63026 5.12 8.9375 5.5 8.9375C5.88 8.9375 6.1875 8.63026 6.1875 8.25V4.8125C6.1875 4.43224 5.88 4.125 5.5 4.125Z" fill="#6B6C7E"/>
    <path d="M6.1875 2.75C6.1875 3.12967 5.88 3.4375 5.5 3.4375C5.12 3.4375 4.8125 3.12967 4.8125 2.75C4.8125 2.37033 5.12 2.0625 5.5 2.0625C5.88 2.0625 6.1875 2.37033 6.1875 2.75Z" fill="#6B6C7E"/>
    <path fill-rule="evenodd" clip-rule="evenodd" d="M5.5 0C6.96967 0 8.35071 0.571518 9.38867 1.61133C10.4286 2.64904 11 4.0305 11 5.5C11 6.9695 10.4286 8.34886 9.38867 9.38867C8.35071 10.4285 6.96967 11 5.5 11C4.03033 11 2.65131 10.4285 1.61133 9.38867C0.57135 8.35096 0 6.9695 0 5.5C0 4.0305 0.57135 2.64904 1.61133 1.61133C2.64929 0.571518 4.03033 0 5.5 0ZM1.375 5.5C1.375 7.77516 3.22467 9.625 5.5 9.625C7.77533 9.625 9.625 7.77516 9.625 5.5C9.625 3.22484 7.77533 1.375 5.5 1.375C3.22467 1.375 1.375 3.22484 1.375 5.5Z" fill="#6B6C7E"/>
</svg>
